# xmcd
# 
# Track frame offsets:
#     150
#     16577
#     35220
#     56555
#     76802
# 
# Disc length: 1249
# 
# Revision: 2
# Processed by: cddbd v1.5.2PL0 Copyright (c) Steve Scherf et al.
# Submitted via: BonkEnc v1.0.8
# 
DISCID=3104df05
DTITLE=Kreuz - Party All Night
DYEAR=1995
DGENRE=Blues
TTITLE0=Party All Night (Radio Edit)
TTITLE1=Party All Night (Original Lick)
TTITLE2=Party All Night (Old Skool Mix)
TTITLE3=Party All Night (Flava Remix)
TTITLE4=Party All Night (Flava Edit)
EXTD=
EXTT0=
EXTT1=
EXTT2=
EXTT3=
EXTT4=
PLAYORDER=
